<?xml version="1.0" encoding="UTF-8" standalone="no"?>
<!DOCTYPE svg PUBLIC "-//W3C//DTD SVG 1.1//EN" "http://www.w3.org/Graphics/SVG/1.1/DTD/svg11.dtd">
<svg width="100%" height="100%" viewBox="0 0 4200 4200" version="1.1" xmlns="http://www.w3.org/2000/svg" xmlns:xlink="http://www.w3.org/1999/xlink" xml:space="preserve" xmlns:serif="http://www.serif.com/" style="fill-rule:evenodd;clip-rule:evenodd;stroke-linejoin:round;stroke-miterlimit:2;">
    <g transform="matrix(1,0,0,1,-8973.1,-2.27374e-13)">
        <g id="banks_walk_we_run" transform="matrix(1.36585,0,0,2.94737,8665.78,-663.158)">
            <rect x="225" y="225" width="3075" height="1425" style="fill:none;"/>
            <g transform="matrix(0.14421,0,0,0.066829,1106.62,930.093)">
                <g transform="matrix(0.910451,0,0,0.910451,3878.46,-4676.52)">
                    <g transform="matrix(14.8942,0,0,9.3503,-5771.41,-1275.51)">
                        <path d="M468.063,616.758L496.035,593.768C496.971,601.499 499.483,607.603 503.57,612.079C507.657,616.555 512.724,618.793 518.769,618.793C524.73,618.793 529.413,617.063 532.819,613.605C536.225,610.146 537.928,605.365 537.928,599.261C537.928,589.631 531.882,581.561 519.791,575.051C516.044,573.016 513.064,571.321 510.85,569.965C496.12,561.148 485.923,552.264 480.261,543.313C474.598,534.361 471.767,523.307 471.767,510.15C471.767,490.619 476.578,474.818 486.2,462.746C495.822,450.675 508.509,444.639 524.261,444.639C535.501,444.639 545.229,448.233 553.446,455.422C561.663,462.61 567.644,472.783 571.391,485.939L544.697,507.098C543.249,499.638 540.737,493.976 537.161,490.11C533.585,486.245 529.115,484.312 523.75,484.312C518.386,484.312 514.043,486.075 510.723,489.602C507.402,493.128 505.741,497.74 505.741,503.436C505.741,513.337 514.001,522.561 530.52,531.105C532.478,532.055 533.968,532.801 534.99,533.343C548.699,540.532 558.448,548.907 564.238,558.47C570.029,568.032 572.924,580.205 572.924,594.989C572.924,614.791 568.113,630.525 558.491,642.189C548.869,653.854 535.884,659.686 519.536,659.686C506.593,659.686 495.545,655.855 486.391,648.191C477.238,640.528 471.129,630.05 468.063,616.758Z" style="fill:rgb(0,49,73);fill-rule:nonzero;"/>
                        <path d="M630.527,651.752L579.565,452.167L621.586,452.167L642.788,555.926C644.491,564.336 645.853,572.135 646.875,579.323C647.897,586.512 648.621,593.565 649.046,600.482C650.068,590.038 651.09,581.154 652.112,573.83C653.133,566.506 654.326,559.86 655.688,553.892L677.018,452.167L718.4,452.167L666.928,651.752L630.527,651.752Z" style="fill:rgb(0,49,73);fill-rule:nonzero;"/>
                        <path d="M767.318,551.654C767.318,569.693 770.106,583.731 775.683,593.768C781.261,603.805 789.03,608.824 798.993,608.824C808.955,608.824 816.725,603.805 822.302,593.768C827.879,583.731 830.668,569.693 830.668,551.654C830.668,533.615 827.837,519.407 822.174,509.031C816.512,498.655 808.7,493.467 798.737,493.467C789.116,493.467 781.474,498.689 775.811,509.133C770.149,519.577 767.318,533.75 767.318,551.654ZM734.11,651.752L734.11,336.403L768.978,336.403L768.978,450.132C768.978,456.371 768.829,462.577 768.531,468.748C768.233,474.919 767.828,480.921 767.318,486.753C773.278,472.376 779.749,461.898 786.731,455.32C793.714,448.742 801.718,445.453 810.743,445.453C828.624,445.453 842.568,454.845 852.573,473.631C862.577,492.416 867.58,518.627 867.58,552.264C867.58,584.681 862.514,610.689 852.381,630.288C842.248,649.887 828.923,659.686 812.404,659.686C802.441,659.686 793.99,656.736 787.051,650.836C780.111,644.936 774.172,635.679 769.233,623.065L769.489,651.752L734.11,651.752Z" style="fill:rgb(0,49,73);fill-rule:nonzero;"/>
                    </g>
                    <g transform="matrix(7.89923,-5.00303,5.00303,7.89923,-808.843,4519.66)">
                        <path d="M963.354,249.004L855.725,249.004L855.725,417.534L882.404,410.007L911.625,415.626L922.353,382.641L963.354,362.768L963.354,249.004Z" style="fill:rgb(0,192,255);"/>
                    </g>
                    <g transform="matrix(7.7584,20.0825,-29.7095,11.4776,12797.3,-19372.8)">
                        <path d="M917.914,381.654L914.942,391.27L922.488,393.75" style="fill:rgb(0,192,255);"/>
                    </g>
                    <g transform="matrix(-0.830138,-25.5733,36.2501,-1.17672,-4103.24,28803.8)">
                        <path d="M956.25,385.169L969.555,385.169L969.839,375" style="fill:rgb(0,192,255);"/>
                    </g>
                    <g transform="matrix(-7.79474,-5.16431,5.16431,-7.79474,13551.2,11893.2)">
                        <path d="M963.354,249.004L855.725,249.004L855.725,393.867L884.084,419.975L911.625,415.626L936.5,423.598L963.354,404.541L963.354,249.004Z" style="fill:rgb(0,192,255);"/>
                    </g>
                    <g transform="matrix(35.6464,-30.6776,30.6074,35.5649,-38388.6,20831.6)">
                        <path d="M1011.38,364.325L1002.68,367.122L999.619,373.314L1010.7,373.598L1011.38,364.325Z" style="fill:rgb(0,192,255);"/>
                    </g>
                </g>
                <g transform="matrix(6.22959,0,0,6.22959,-2518.03,-733.57)">
                    <text x="1167.13px" y="341.533px" style="font-family:'ArialMT', 'Arial', sans-serif;font-size:162.685px;fill:rgb(0,49,73);">Silicandy V<tspan x="1959.83px 2050.3px " y="341.533px 341.533px ">al</tspan>ley</text>
                    <text x="1167.13px" y="509.54px" style="font-family:'ArialMT', 'Arial', sans-serif;font-size:162.685px;fill:rgb(0,49,73);">Bank</text>
                </g>
                <g transform="matrix(6.48342,0,0,6.48342,-10634.4,-5992)">
                    <text x="1167.13px" y="424.94px" style="font-family:'CourierNewPSMT', 'Courier New', monospace;font-size:326.276px;fill:rgb(0,49,73);">B<tspan x="1367.79px 1568.44px 1769.09px 1969.74px " y="424.94px 424.94px 424.94px 424.94px ">anks</tspan></text>
                    <text x="1167.13px" y="751.215px" style="font-family:'CourierNewPSMT', 'Courier New', monospace;font-size:326.276px;fill:rgb(0,49,73);">w<tspan x="1367.79px 1568.44px 1769.09px 1969.74px " y="751.215px 751.215px 751.215px 751.215px ">alk.</tspan></text>
                    <text x="1167.13px" y="1127.49px" style="font-family:'CourierNewPSMT', 'Courier New', monospace;font-size:326.276px;fill:rgb(0,49,73);">W</text>
                    <text x="1369.46px" y="1127.49px" style="font-family:'CourierNewPSMT', 'Courier New', monospace;font-size:326.276px;fill:rgb(0,49,73);">e</text>
                    <text x="1167.13px" y="1471.14px" style="font-family:'CourierNewPS-BoldMT', 'Courier New', monospace;font-weight:700;font-size:326.276px;fill:rgb(0,49,73);">r<tspan x="1434.67px 1702.2px 1969.74px " y="1471.14px 1471.14px 1471.14px ">un.</tspan></text>
                </g>
            </g>
        </g>
    </g>
</svg>
